<mxfile host="Electron" modified="2023-06-11T17:32:50.918Z" agent="Mozilla/5.0 (Windows NT 10.0; Win64; x64) AppleWebKit/537.36 (KHTML, like Gecko) draw.io/21.2.8 Chrome/112.0.5615.165 Electron/24.2.0 Safari/537.36" etag="hpJlkf59505AbMhjbVLU" version="21.2.8" type="device">
  <diagram name="Page-1" id="axz9rZNjR8a0LEMZ95Yz">
    <mxGraphModel dx="2343" dy="863" grid="1" gridSize="10" guides="1" tooltips="1" connect="1" arrows="1" fold="1" page="1" pageScale="1" pageWidth="850" pageHeight="1100" math="0" shadow="0">
      <root>
        <mxCell id="0" />
        <mxCell id="1" parent="0" />
        <mxCell id="7_Orardq814eS-eohaxx-1" value="&lt;b&gt;USER&lt;/b&gt;" style="shape=umlActor;verticalLabelPosition=bottom;verticalAlign=top;html=1;outlineConnect=0;" vertex="1" parent="1">
          <mxGeometry x="90" y="420" width="60" height="80" as="geometry" />
        </mxCell>
        <mxCell id="7_Orardq814eS-eohaxx-3" value="CLIENT" style="verticalLabelPosition=bottom;verticalAlign=top;html=1;shape=mxgraph.basic.polygon;polyCoords=[[0.25,0],[0.75,0],[1,0.25],[1,0.75],[0.75,1],[0.25,1],[0,0.75],[0,0.25]];polyline=0;fontStyle=1" vertex="1" parent="1">
          <mxGeometry x="350" y="410" width="100" height="100" as="geometry" />
        </mxCell>
        <mxCell id="7_Orardq814eS-eohaxx-4" value="&lt;b&gt;SERVER&lt;/b&gt;" style="verticalLabelPosition=bottom;verticalAlign=top;html=1;shape=mxgraph.basic.polygon;polyCoords=[[0.25,0],[0.75,0],[1,0.25],[1,0.75],[0.75,1],[0.25,1],[0,0.75],[0,0.25]];polyline=0;" vertex="1" parent="1">
          <mxGeometry x="640" y="410" width="100" height="100" as="geometry" />
        </mxCell>
        <mxCell id="7_Orardq814eS-eohaxx-6" value="&lt;b&gt;&lt;i&gt;MESEAGE&lt;/i&gt;&lt;/b&gt;" style="shape=note;whiteSpace=wrap;html=1;backgroundOutline=1;darkOpacity=0.05;" vertex="1" parent="1">
          <mxGeometry x="220" y="360" width="70" height="90" as="geometry" />
        </mxCell>
        <mxCell id="7_Orardq814eS-eohaxx-8" value="&lt;b&gt;REQUEST&lt;/b&gt;" style="endArrow=classic;html=1;rounded=0;" edge="1" parent="1">
          <mxGeometry width="50" height="50" relative="1" as="geometry">
            <mxPoint x="210" y="340" as="sourcePoint" />
            <mxPoint x="300" y="340" as="targetPoint" />
          </mxGeometry>
        </mxCell>
        <mxCell id="7_Orardq814eS-eohaxx-9" value="&lt;b&gt;&lt;i&gt;MESEAGE&lt;/i&gt;&lt;/b&gt;" style="shape=note;whiteSpace=wrap;html=1;backgroundOutline=1;darkOpacity=0.05;" vertex="1" parent="1">
          <mxGeometry x="510" y="360" width="70" height="90" as="geometry" />
        </mxCell>
        <mxCell id="7_Orardq814eS-eohaxx-10" value="&lt;b&gt;REQUEST&lt;/b&gt;" style="endArrow=classic;html=1;rounded=0;" edge="1" parent="1">
          <mxGeometry width="50" height="50" relative="1" as="geometry">
            <mxPoint x="500" y="340" as="sourcePoint" />
            <mxPoint x="590" y="340" as="targetPoint" />
          </mxGeometry>
        </mxCell>
        <mxCell id="7_Orardq814eS-eohaxx-11" value="" style="endArrow=classic;startArrow=classic;html=1;rounded=0;entryX=0.007;entryY=0.523;entryDx=0;entryDy=0;entryPerimeter=0;exitX=1.002;exitY=0.512;exitDx=0;exitDy=0;exitPerimeter=0;" edge="1" parent="1" source="7_Orardq814eS-eohaxx-3" target="7_Orardq814eS-eohaxx-4">
          <mxGeometry width="50" height="50" relative="1" as="geometry">
            <mxPoint x="450" y="467" as="sourcePoint" />
            <mxPoint x="460" y="360" as="targetPoint" />
          </mxGeometry>
        </mxCell>
        <mxCell id="7_Orardq814eS-eohaxx-13" value="&lt;b&gt;&lt;i&gt;MESEAGE&lt;/i&gt;&lt;/b&gt;" style="shape=note;whiteSpace=wrap;html=1;backgroundOutline=1;darkOpacity=0.05;" vertex="1" parent="1">
          <mxGeometry x="510" y="480" width="70" height="90" as="geometry" />
        </mxCell>
        <mxCell id="7_Orardq814eS-eohaxx-14" value="&lt;b&gt;RESPONSE&lt;/b&gt;" style="endArrow=classic;html=1;rounded=0;" edge="1" parent="1">
          <mxGeometry x="-0.1111" width="50" height="50" relative="1" as="geometry">
            <mxPoint x="590" y="590" as="sourcePoint" />
            <mxPoint x="500" y="590" as="targetPoint" />
            <mxPoint as="offset" />
          </mxGeometry>
        </mxCell>
        <mxCell id="7_Orardq814eS-eohaxx-15" value="" style="endArrow=classic;startArrow=classic;html=1;rounded=0;exitX=0.5;exitY=0.5;exitDx=0;exitDy=0;exitPerimeter=0;entryX=0;entryY=0.5;entryDx=0;entryDy=0;entryPerimeter=0;" edge="1" parent="1" source="7_Orardq814eS-eohaxx-1" target="7_Orardq814eS-eohaxx-3">
          <mxGeometry width="50" height="50" relative="1" as="geometry">
            <mxPoint x="410" y="410" as="sourcePoint" />
            <mxPoint x="460" y="360" as="targetPoint" />
          </mxGeometry>
        </mxCell>
        <mxCell id="7_Orardq814eS-eohaxx-16" value="&lt;b&gt;&lt;i&gt;MESEAGE&lt;/i&gt;&lt;/b&gt;" style="shape=note;whiteSpace=wrap;html=1;backgroundOutline=1;darkOpacity=0.05;" vertex="1" parent="1">
          <mxGeometry x="220" y="469.47" width="70" height="90" as="geometry" />
        </mxCell>
        <mxCell id="7_Orardq814eS-eohaxx-17" value="&lt;b&gt;RESPONSE&lt;/b&gt;" style="endArrow=classic;html=1;rounded=0;" edge="1" parent="1">
          <mxGeometry x="-0.1111" width="50" height="50" relative="1" as="geometry">
            <mxPoint x="300" y="579.47" as="sourcePoint" />
            <mxPoint x="210" y="579.47" as="targetPoint" />
            <mxPoint as="offset" />
          </mxGeometry>
        </mxCell>
        <mxCell id="7_Orardq814eS-eohaxx-18" value="&lt;b&gt;&lt;i&gt;MESEAGE&lt;/i&gt;&lt;/b&gt;" style="shape=note;whiteSpace=wrap;html=1;backgroundOutline=1;darkOpacity=0.05;" vertex="1" parent="1">
          <mxGeometry x="800" y="354.47" width="70" height="90" as="geometry" />
        </mxCell>
        <mxCell id="7_Orardq814eS-eohaxx-19" value="&lt;b&gt;REQUEST&lt;/b&gt;" style="endArrow=classic;html=1;rounded=0;" edge="1" parent="1">
          <mxGeometry width="50" height="50" relative="1" as="geometry">
            <mxPoint x="790" y="334.47" as="sourcePoint" />
            <mxPoint x="880" y="334.47" as="targetPoint" />
          </mxGeometry>
        </mxCell>
        <mxCell id="7_Orardq814eS-eohaxx-20" value="" style="endArrow=classic;startArrow=classic;html=1;rounded=0;entryX=0;entryY=0.5;entryDx=0;entryDy=0;" edge="1" parent="1" target="7_Orardq814eS-eohaxx-25">
          <mxGeometry width="50" height="50" relative="1" as="geometry">
            <mxPoint x="740" y="461.47" as="sourcePoint" />
            <mxPoint x="930" y="460" as="targetPoint" />
          </mxGeometry>
        </mxCell>
        <mxCell id="7_Orardq814eS-eohaxx-21" value="&lt;b&gt;&lt;i&gt;MESEAGE&lt;/i&gt;&lt;/b&gt;" style="shape=note;whiteSpace=wrap;html=1;backgroundOutline=1;darkOpacity=0.05;" vertex="1" parent="1">
          <mxGeometry x="800" y="474.47" width="70" height="90" as="geometry" />
        </mxCell>
        <mxCell id="7_Orardq814eS-eohaxx-22" value="&lt;b&gt;RESPONSE&lt;/b&gt;" style="endArrow=classic;html=1;rounded=0;" edge="1" parent="1">
          <mxGeometry x="-0.1111" width="50" height="50" relative="1" as="geometry">
            <mxPoint x="880" y="584.47" as="sourcePoint" />
            <mxPoint x="790" y="584.47" as="targetPoint" />
            <mxPoint as="offset" />
          </mxGeometry>
        </mxCell>
        <mxCell id="7_Orardq814eS-eohaxx-23" value="&lt;b&gt;REACT&lt;/b&gt;" style="text;html=1;strokeColor=none;fillColor=none;align=center;verticalAlign=middle;whiteSpace=wrap;rounded=0;" vertex="1" parent="1">
          <mxGeometry x="370" y="445" width="60" height="30" as="geometry" />
        </mxCell>
        <mxCell id="7_Orardq814eS-eohaxx-24" value="&lt;b&gt;NODE&lt;/b&gt;" style="text;html=1;strokeColor=none;fillColor=none;align=center;verticalAlign=middle;whiteSpace=wrap;rounded=0;" vertex="1" parent="1">
          <mxGeometry x="660" y="444.47" width="60" height="30" as="geometry" />
        </mxCell>
        <mxCell id="7_Orardq814eS-eohaxx-25" value="OPENAI API" style="shape=hexagon;perimeter=hexagonPerimeter2;whiteSpace=wrap;html=1;fixedSize=1;" vertex="1" parent="1">
          <mxGeometry x="940" y="419.47" width="120" height="80" as="geometry" />
        </mxCell>
        <mxCell id="7_Orardq814eS-eohaxx-28" value="IF THE USER AUTHENTICATED WITH GOOGLE ALLOWED TO ACCESS APP" style="text;html=1;strokeColor=none;fillColor=none;align=center;verticalAlign=middle;whiteSpace=wrap;rounded=0;" vertex="1" parent="1">
          <mxGeometry x="-40" y="290" width="320" height="30" as="geometry" />
        </mxCell>
        <mxCell id="7_Orardq814eS-eohaxx-30" value="FIREBASE" style="shape=hexagon;perimeter=hexagonPerimeter2;whiteSpace=wrap;html=1;fixedSize=1;" vertex="1" parent="1">
          <mxGeometry x="60" y="169.47" width="120" height="80" as="geometry" />
        </mxCell>
        <mxCell id="7_Orardq814eS-eohaxx-31" value="" style="endArrow=classic;startArrow=classic;html=1;rounded=0;exitX=0.496;exitY=-0.004;exitDx=0;exitDy=0;exitPerimeter=0;entryX=0.5;entryY=1;entryDx=0;entryDy=0;" edge="1" parent="1" target="7_Orardq814eS-eohaxx-30">
          <mxGeometry width="50" height="50" relative="1" as="geometry">
            <mxPoint x="119" y="289.47" as="sourcePoint" />
            <mxPoint x="120" y="299.47" as="targetPoint" />
          </mxGeometry>
        </mxCell>
        <mxCell id="7_Orardq814eS-eohaxx-32" value="" style="endArrow=classic;startArrow=classic;html=1;rounded=0;exitX=0.496;exitY=-0.004;exitDx=0;exitDy=0;exitPerimeter=0;entryX=0.5;entryY=1;entryDx=0;entryDy=0;" edge="1" parent="1">
          <mxGeometry width="50" height="50" relative="1" as="geometry">
            <mxPoint x="120" y="419.47" as="sourcePoint" />
            <mxPoint x="120" y="319.47" as="targetPoint" />
          </mxGeometry>
        </mxCell>
      </root>
    </mxGraphModel>
  </diagram>
</mxfile>
